<?xml version="1.0" encoding="iso-8859-1"?>
<!-- Generator: Adobe Illustrator 16.0.3, SVG Export Plug-In . SVG Version: 6.00 Build 0)  -->
<!DOCTYPE svg PUBLIC "-//W3C//DTD SVG 1.1//EN" "http://www.w3.org/Graphics/SVG/1.1/DTD/svg11.dtd">
<svg version="1.1" id="Layer_1" xmlns="http://www.w3.org/2000/svg" xmlns:xlink="http://www.w3.org/1999/xlink" x="0px" y="0px"
	 width="512px" height="512px" viewBox="0 0 512 512" enable-background="new 0 0 512 512" xml:space="preserve">
<path d="M438.012,374.668H75.975c-11.457,0-20.781-9.238-20.781-20.594V114.338c0-11.357,9.324-20.598,20.781-20.598h362.037
	c11.453,0,20.781,9.24,20.781,20.598v239.736C458.793,365.43,449.465,374.668,438.012,374.668z M75.975,113.74
	c-0.469,0-0.781,0.361-0.781,0.598v239.736c0,0.234,0.313,0.594,0.781,0.594h362.037c0.469,0,0.781-0.359,0.781-0.594V114.338
	c0-0.236-0.313-0.598-0.781-0.598H75.975z"/>
<path d="M329.605,420.285H185.939c-5.523,0-10-4.477-10-10c0-5.52,4.477-10,10-10h143.666c5.523,0,10,4.48,10,10
	C339.605,415.809,335.129,420.285,329.605,420.285z"/>
<path fill="none" stroke="#000000" stroke-width="20" stroke-linecap="round" stroke-miterlimit="10" d="M257.77,333.785"/>
<path d="M208.811,293.066c-2.559,0-5.117-0.973-7.07-2.93l-53.023-53.035l53.227-53.221c3.906-3.902,10.234-3.902,14.141,0
	c3.906,3.904,3.906,10.234,0,14.143l-39.086,39.082l38.883,38.891c3.906,3.914,3.906,10.238,0,14.145
	C213.928,292.094,211.369,293.066,208.811,293.066z"/>
<path d="M303.199,293.074c-2.563,0-5.117-0.973-7.07-2.926c-3.906-3.902-3.906-10.238,0-14.145l38.883-38.893l-39.094-39.08
	c-3.906-3.902-3.906-10.234,0-14.141c3.898-3.902,10.234-3.902,14.141,0l53.234,53.221l-53.023,53.033
	C308.316,292.102,305.754,293.074,303.199,293.074z"/>
<path d="M241.232,294.34c-0.957,0-1.93-0.137-2.891-0.43c-5.289-1.594-8.281-7.172-6.688-12.461l28.537-94.639
	c1.594-5.291,7.188-8.283,12.461-6.689c5.289,1.594,8.281,7.174,6.688,12.461l-28.537,94.645
	C249.498,291.551,245.529,294.34,241.232,294.34z"/>
</svg>
