<?xml version="1.0" encoding="iso-8859-1"?>
<!-- Generator: Adobe Illustrator 16.0.3, SVG Export Plug-In . SVG Version: 6.00 Build 0)  -->
<!DOCTYPE svg PUBLIC "-//W3C//DTD SVG 1.1//EN" "http://www.w3.org/Graphics/SVG/1.1/DTD/svg11.dtd">
<svg version="1.1" id="Layer_1" xmlns="http://www.w3.org/2000/svg" xmlns:xlink="http://www.w3.org/1999/xlink" x="0px" y="0px"
	 width="512px" height="512px" viewBox="0 0 512 512" enable-background="new 0 0 512 512" xml:space="preserve">
<g>
	<path d="M316.238,421.703H77.189c-12.168,0-22.098-9.766-22.363-21.871c-0.008-0.172-0.012-0.348-0.012-0.52
		c0-2.094,0.438-51.469,38.465-70.398c11.203-5.57,15.461-6.453,20.684-7.164c3.242-0.441,6.918-0.941,18.328-5.676
		c11.711-4.852,17.547-7.996,20.297-9.695l0.164-16.824c-3.098-5.055-8.844-16.102-11.691-32.266
		c-0.91-0.938-1.797-2.094-2.621-3.52c-4.434-7.672-9.094-30.281-3.578-39.836c0.07-0.117,0.137-0.234,0.211-0.348
		c-0.055-0.363-0.102-0.715-0.152-1.063c-1.023-7.176-1.703-11.914-1.176-17.293c2.422-24.945,31.109-47.398,62.645-49.023
		c0.32-0.012,0.637-0.012,0.949-0.004c39.879,1.734,60.369,26.633,62.525,49.031c0.523,5.207-0.141,9.715-1.141,16.535
		c-0.086,0.594-0.18,1.211-0.273,1.855c1.602,2.715,2.727,6.656,2.727,12.363c0,0.281-0.117,22.113-8.771,31.199
		c-2.852,16.18-8.602,27.215-11.711,32.266l0.152,16.551c2.82,1.691,8.684,4.789,20.283,9.594
		c11.461,4.754,15.234,5.387,18.555,5.941c5.281,0.887,9.289,1.824,20.461,7.379c38.031,18.926,38.469,68.301,38.469,70.395
		c0,0.176-0.008,0.348-0.016,0.52C338.332,411.938,328.402,421.703,316.238,421.703z M74.826,399.453
		c0.059,1.25,1.098,2.25,2.363,2.25h239.049c1.25,0,2.273-0.973,2.359-2.199c0-0.063,0-0.129,0-0.191c0-0.125,0-0.254,0.008-0.379
		c-0.125-4.059-1.945-39.457-27.375-52.109c-9.305-4.629-11.633-5.02-14.859-5.559c-4.156-0.699-9.336-1.566-22.9-7.191
		c-28.004-11.602-31.199-16.352-32.305-20.953c-0.176-0.738-0.27-1.492-0.277-2.25l-0.223-24.289
		c-0.02-2.23,0.707-4.406,2.066-6.176c0.035-0.051,8.023-10.988,10.582-30.664c0.379-2.895,1.996-5.477,4.438-7.074
		c0.207-0.137,0.418-0.266,0.633-0.383c1.555-3.98,2.938-12.449,2.82-17.023c-0.082-0.074-0.168-0.148-0.25-0.227
		c-2.367-2.207-3.52-5.426-3.09-8.637c0.383-2.887,0.75-5.363,1.07-7.543c0.906-6.156,1.293-8.992,1.027-11.66
		c-1.355-14.023-15.387-29.617-43.012-30.988c-23.23,1.398-41.984,17.422-43.301,30.965c-0.281,2.871,0.125,5.914,1.07,12.523
		c0.281,1.977,0.598,4.195,0.938,6.73c0.426,3.215-0.727,6.438-3.102,8.645c-0.086,0.078-0.172,0.156-0.262,0.234
		c-0.125,4.574,1.234,13.047,2.781,17.035c0.215,0.117,0.426,0.246,0.637,0.383c2.438,1.602,4.059,4.184,4.434,7.078
		c2.551,19.688,10.551,30.688,10.629,30.797c1.293,1.746,2.027,3.934,2.008,6.105l-0.242,24.418c-0.008,0.719-0.09,1.43-0.25,2.129
		c-1.051,4.602-4.316,9.691-32.34,21.301c-13.805,5.727-19.066,6.441-23.293,7.016c-3.121,0.426-5.379,0.73-14.469,5.254
		c-25.691,12.789-27.273,48.254-27.371,52.148c0.004,0.113,0.008,0.227,0.008,0.344C74.826,399.359,74.826,399.406,74.826,399.453z"
		/>
	<g>
		<path d="M314.121,282.715v-46.336h-5.93c-20.063,0-36.383-16.324-36.383-36.387v-71.32c0-20.066,16.32-36.391,36.383-36.391
			h114.352c20.063,0,36.383,16.324,36.383,36.391v71.32c0,20.063-16.32,36.387-36.383,36.387h-48.484L314.121,282.715z
			 M308.191,112.281c-9.031,0-16.383,7.352-16.383,16.391v71.32c0,9.035,7.352,16.387,16.383,16.387h25.93v25.594l33.109-25.594
			h55.313c9.031,0,16.383-7.352,16.383-16.387v-71.32c0-9.039-7.352-16.391-16.383-16.391H308.191z"/>
		<path d="M411.988,154.93h-91.484c-5.523,0-10-4.477-10-10s4.477-10,10-10h91.484c5.523,0,10,4.477,10,10
			S417.512,154.93,411.988,154.93z"/>
		<path d="M411.988,189.672h-91.484c-5.523,0-10-4.477-10-10s4.477-10,10-10h91.484c5.523,0,10,4.477,10,10
			S417.512,189.672,411.988,189.672z"/>
	</g>
</g>
</svg>
