<?xml version="1.0" encoding="iso-8859-1"?>
<!-- Generator: Adobe Illustrator 16.0.3, SVG Export Plug-In . SVG Version: 6.00 Build 0)  -->
<!DOCTYPE svg PUBLIC "-//W3C//DTD SVG 1.1//EN" "http://www.w3.org/Graphics/SVG/1.1/DTD/svg11.dtd">
<svg version="1.1" id="Layer_1" xmlns="http://www.w3.org/2000/svg" xmlns:xlink="http://www.w3.org/1999/xlink" x="0px" y="0px"
	 width="512px" height="512px" viewBox="0 0 512 512" enable-background="new 0 0 512 512" xml:space="preserve">
<g>
	<path d="M233.482,324.424l-50.414-50.418c-3.906-3.902-3.906-10.234,0-14.141c3.906-3.902,10.234-3.902,14.141,0l36.273,36.273
		l99.479-99.475c3.906-3.906,10.234-3.906,14.141,0c3.906,3.904,3.906,10.236,0,14.141L233.482,324.424z"/>
	<g>
		<path d="M325.008,458.936H94.01V55.08h326.537v307.457L325.008,458.936z M114.01,438.936h202.662l83.875-84.629V75.08H114.01
			V438.936z"/>
		<polygon points="330.836,448.936 310.836,448.936 310.836,348.42 410.547,348.42 410.547,368.42 330.836,368.42 		"/>
	</g>
</g>
</svg>
